<mxfile host="app.diagrams.net" modified="2024-05-24T10:07:24.669Z" agent="Mozilla/5.0 (Windows NT 10.0; Win64; x64) AppleWebKit/537.36 (KHTML, like Gecko) Chrome/125.0.0.0 Safari/537.36 Edg/125.0.0.0" version="24.4.7" etag="1IZJLC70-_Y9QreIVuJP" type="github">
  <diagram name="Page-1" id="R6Km9wzZpXqyVjOtEqh_">
    <mxGraphModel>
      <root>
        <mxCell id="0" />
        <mxCell id="1" parent="0" />
      </root>
    </mxGraphModel>
  </diagram>
</mxfile>
